<?xml version="1.0" encoding="UTF-8" standalone="no"?> <!-- Created with Vectornator for iOS (http://vectornator.io/) --><!DOCTYPE svg PUBLIC "-//W3C//DTD SVG 1.1//EN" "http://www.w3.org/Graphics/SVG/1.1/DTD/svg11.dtd">
<svg style="fill-rule:evenodd;clip-rule:evenodd;stroke-linecap:round;stroke-linejoin:round;" xmlns:vectornator="http://vectornator.io" xmlns:xlink="http://www.w3.org/1999/xlink" xmlns="http://www.w3.org/2000/svg" xml:space="preserve" version="1.1" viewBox="0 0 855 576">
<metadata>
<vectornator:setting key="DisplayWhiteBackground" value="0"/>
<vectornator:setting key="RulersVisible" value="1"/>
<vectornator:setting key="OutlineMode" value="0"/>
<vectornator:setting key="Units" value="Pixels"/>
<vectornator:setting key="DynamicGuides" value="1"/>
<vectornator:setting key="CMYKEnabledKey" value="0"/>
<vectornator:setting key="IsolateActiveLayer" value="0"/>
<vectornator:setting key="SnapToGuides" value="1"/>
<vectornator:setting key="ShowGrid" value="0"/>
<vectornator:setting key="GridSpacing" value="36.00450134277344"/>
</metadata>
<defs/>
<g id="Layer 1" vectornator:layerName="Layer 1">
<path stroke="#000000" stroke-width="20" d="M670.37+21.21L844.46+11L670.37+21.21Z" fill="none" stroke-linecap="round" opacity="1" stroke-linejoin="round"/>
<path stroke="#000000" fill-rule="evenodd" stroke-width="7" d="M15.2264+113.187C15.2264+113.187+14.5491+246.175+60.4933+332.02C60.4933+332.02+29.1616+253.297+5.76673+302.337C-16.308+348.61+31.9187+342.119+34.6071+351.647C54.5962+422.489+100.623+479.997+198.057+477.054C198.057+477.054+325.057+471.854+311.307+381.164C296.777+332.544+320.577+199.364+328.797+149.108C328.797+149.108+382.527+73.7222+268.877+45.4322C268.877+45.4322+287.407+14.7032+353.747+26.8972C353.747+26.8972+286.927-8.2218+227.907+10.3132C227.907+10.3132+42.2233+83.5635+15.2264+113.187Z" fill="#ffecd6" stroke-linecap="round" opacity="1" stroke-linejoin="round"/>
<path stroke="#000000" stroke-width="20" d="M670.37+91.8983L817.81+164.478L670.37+91.8983Z" fill="none" stroke-linecap="round" opacity="1" stroke-linejoin="round"/>
<path stroke="#000000" fill-rule="evenodd" stroke-width="7" d="M511.404+4.91229L513.043+139.306L434.709+139.306L400.244+380.152L469.004+385.942L475.424+216.952L481.854+326.822L584.654+304.332L584.014+178.392L602.789+302.402L669.227+295.677L626.015+139.306L564.818+139.306L560.244+33.8223L511.404+4.91229Z" fill="#ffff00" stroke-linecap="round" opacity="1" stroke-linejoin="round"/>
<path stroke="#000000" fill-rule="evenodd" stroke-width="7" d="M584.654+304.332L619.264+565.319L552.249+571.416L543.504+346.232L539.314+572.062L485.204+570.932L481.854+326.822L584.654+304.332Z" fill="#ffff00" stroke-linecap="round" opacity="1" stroke-linejoin="round"/>
</g>
<g id="Untitled" vectornator:layerName="Untitled">
<path stroke="#000000" fill-rule="evenodd" stroke-width="7" d="M404.789+381.302L397.181+412.935L448.836+422.946L454.842+386.908L404.789+381.302Z" fill="#ffecd6" stroke-linecap="round" opacity="1" stroke-linejoin="round"/>
<path stroke="#000000" fill-rule="evenodd" stroke-width="7" d="M612.709+302.67L617.113+337.107L670.37+332.702L663.563+297.465L612.709+302.67Z" fill="#ffecd6" stroke-linecap="round" opacity="1" stroke-linejoin="round"/>
<path stroke="#000000" stroke-width="7" d="M130.013+409.908C130.013+409.908+170.514+388.932+192.599+396.294C215.251+407.053+227.82+381.393+249.339+389.887C272.556+404.611+295.788+387.759+295.788+387.759" fill="none" stroke-linecap="butt" opacity="1" stroke-linejoin="miter"/>
<path d="M118.588+253.385C118.588+217.419+129.616+188.262+143.221+188.262C156.826+188.262+167.854+217.419+167.854+253.385C167.854+289.351+156.826+318.508+143.221+318.508C129.616+318.508+118.588+289.351+118.588+253.385Z" fill-rule="evenodd" fill="#050800" opacity="1"/>
<path d="M229.296+257.349C229.296+221.383+240.325+192.226+253.93+192.226C267.534+192.226+278.563+221.383+278.563+257.349C278.563+293.315+267.534+322.472+253.93+322.472C240.325+322.472+229.296+293.315+229.296+257.349Z" fill-rule="evenodd" fill="#161d0c" opacity="1"/>
<path stroke="#000000" fill-rule="evenodd" stroke-width="0.8" d="M250.103+102.29C295.151+101.089+316.484+123.219+320.488+135.232C323.291+144.642+319.619+154.851+319.619+154.851C319.619+154.851+301.143+129.586+294.136+138.995L299.232+164.478C299.232+164.478+275.141+132.242+242.638+120.324C235.985+116.785+220.848+104.626+250.103+102.29Z" fill="#000000" stroke-linecap="butt" opacity="1" stroke-linejoin="miter"/>
<path stroke="#000000" fill-rule="evenodd" stroke-width="0.8" d="M142.648+108.252C97.6004+107.05+76.2671+129.181+72.2629+141.193C69.4599+150.603+73.1324+160.813+73.1324+160.813C73.1324+160.813+91.6078+135.547+98.6152+144.957L93.5187+170.44C93.5187+170.44+117.61+138.203+150.113+126.285C156.767+122.746+171.903+110.587+142.648+108.252Z" fill="#000000" stroke-linecap="butt" opacity="1" stroke-linejoin="miter"/>
<path stroke="#000000" fill-rule="evenodd" stroke-width="7" d="M15.8271+116.992C14.2254+130.205+104.997+72.1738+138.408+82.367C109.527+101.054+126.516+103.319+126.516+103.319L208.061+69.9087C264.689+58.0167+341.704+102.753+341.704+102.753C342.836+58.583+268.877+45.4322+268.877+45.4322C268.877+45.4322+310.143+15.0052+353.747+26.8972C323.918+8.94907+282.5-8.33038+213.506+12.5615C127.943+38.4702+17.7081+97.2414+15.8271+116.992Z" fill="#000000" stroke-linecap="butt" opacity="1" stroke-linejoin="miter"/>
</g>
</svg>
