<?xml version="1.0" encoding="UTF-8" standalone="no"?> <!-- Created with Vectornator for iOS (http://vectornator.io/) --><!DOCTYPE svg PUBLIC "-//W3C//DTD SVG 1.1//EN" "http://www.w3.org/Graphics/SVG/1.1/DTD/svg11.dtd">
<svg style="fill-rule:evenodd;clip-rule:evenodd;stroke-linecap:round;stroke-linejoin:round;" xmlns:vectornator="http://vectornator.io" xmlns:xlink="http://www.w3.org/1999/xlink" xmlns="http://www.w3.org/2000/svg" xml:space="preserve" version="1.1" viewBox="0 0 885 576">
<metadata>
<vectornator:setting key="DisplayWhiteBackground" value="0"/>
<vectornator:setting key="RulersVisible" value="1"/>
<vectornator:setting key="OutlineMode" value="0"/>
<vectornator:setting key="Units" value="Pixels"/>
<vectornator:setting key="DynamicGuides" value="1"/>
<vectornator:setting key="CMYKEnabledKey" value="0"/>
<vectornator:setting key="IsolateActiveLayer" value="0"/>
<vectornator:setting key="SnapToGuides" value="1"/>
<vectornator:setting key="ShowGrid" value="0"/>
<vectornator:setting key="GridSpacing" value="36.00450134277344"/>
</metadata>
<defs/>
<g id="Layer 1" vectornator:layerName="Layer 1">
<path stroke="#000000" stroke-width="20" d="M696.37+21.21L870.46+11L696.37+21.21Z" fill="none" stroke-linecap="round" opacity="1" stroke-linejoin="round"/>
<path stroke="#000000" fill-rule="evenodd" stroke-width="7" d="M20.2264+113.187C20.2264+113.187+19.5491+246.175+65.4933+332.02C65.4933+332.02+34.1616+253.297+10.7667+302.337C-11.308+348.61+36.9187+342.119+39.6071+351.647C59.5962+422.489+105.623+479.997+203.057+477.054C203.057+477.054+330.057+471.854+316.307+381.164C301.777+332.544+325.577+199.364+333.797+149.108C333.797+149.108+387.527+73.7222+273.877+45.4322C273.877+45.4322+292.407+14.7032+358.747+26.8972C358.747+26.8972+291.927-8.2218+232.907+10.3132C232.907+10.3132+47.2233+83.5635+20.2264+113.187Z" fill="#ffecd6" stroke-linecap="round" opacity="1" stroke-linejoin="round"/>
<path stroke="#000000" stroke-width="20" d="M696.37+91.8983L843.81+164.478L696.37+91.8983Z" fill="none" stroke-linecap="round" opacity="1" stroke-linejoin="round"/>
<path stroke="#000000" fill-rule="evenodd" stroke-width="7" d="M511.404+4.91229L513.043+139.306L434.709+139.306L400.244+380.152L469.004+385.942L475.424+216.952L481.854+326.822L584.654+304.332L584.014+178.392L602.789+302.402L669.227+295.677L626.015+139.306L564.818+139.306L560.244+33.8223L511.404+4.91229Z" fill="#ffff00" stroke-linecap="round" opacity="1" stroke-linejoin="round"/>
<path stroke="#000000" fill-rule="evenodd" stroke-width="7" d="M584.654+304.332L619.264+565.319L552.249+571.416L543.504+346.232L539.314+572.062L485.204+570.932L481.854+326.822L584.654+304.332Z" fill="#ffff00" stroke-linecap="round" opacity="1" stroke-linejoin="round"/>
</g>
<g id="Untitled" vectornator:layerName="Untitled">
<path stroke="#000000" fill-rule="evenodd" stroke-width="7" d="M404.789+381.302L397.181+412.935L448.836+422.946L454.842+386.908L404.789+381.302Z" fill="#ffecd6" stroke-linecap="round" opacity="1" stroke-linejoin="round"/>
<path stroke="#000000" fill-rule="evenodd" stroke-width="7" d="M612.709+302.67L617.113+337.107L670.37+332.702L663.563+297.465L612.709+302.67Z" fill="#ffecd6" stroke-linecap="round" opacity="1" stroke-linejoin="round"/>
<path stroke="#000000" stroke-width="7" d="M135.013+409.908C135.013+409.908+175.514+388.932+197.599+396.294C220.251+407.053+232.82+381.393+254.339+389.887C277.556+404.611+300.788+387.759+300.788+387.759" fill="none" stroke-linecap="butt" opacity="1" stroke-linejoin="miter"/>
<path d="M123.588+253.385C123.588+217.419+134.616+188.262+148.221+188.262C161.826+188.262+172.854+217.419+172.854+253.385C172.854+289.351+161.826+318.508+148.221+318.508C134.616+318.508+123.588+289.351+123.588+253.385Z" fill-rule="evenodd" fill="#050800" opacity="1"/>
<path d="M234.296+257.349C234.296+221.383+245.325+192.226+258.93+192.226C272.534+192.226+283.563+221.383+283.563+257.349C283.563+293.315+272.534+322.472+258.93+322.472C245.325+322.472+234.296+293.315+234.296+257.349Z" fill-rule="evenodd" fill="#161d0c" opacity="1"/>
<path stroke="#000000" fill-rule="evenodd" stroke-width="0.8" d="M255.103+102.29C300.151+101.089+321.484+123.219+325.488+135.232C328.291+144.642+324.619+154.851+324.619+154.851C324.619+154.851+306.143+129.586+299.136+138.995L304.232+164.478C304.232+164.478+280.141+132.242+247.638+120.324C240.985+116.785+225.848+104.626+255.103+102.29Z" fill="#000000" stroke-linecap="butt" opacity="1" stroke-linejoin="miter"/>
<path stroke="#000000" fill-rule="evenodd" stroke-width="0.8" d="M147.648+108.252C102.6+107.05+81.2671+129.181+77.2629+141.193C74.4599+150.603+78.1324+160.813+78.1324+160.813C78.1324+160.813+96.6078+135.547+103.615+144.957L98.5187+170.44C98.5187+170.44+122.61+138.203+155.113+126.285C161.767+122.746+176.903+110.587+147.648+108.252Z" fill="#000000" stroke-linecap="butt" opacity="1" stroke-linejoin="miter"/>
<path stroke="#000000" fill-rule="evenodd" stroke-width="7" d="M20.8271+116.992C19.2254+130.205+109.997+72.1738+143.408+82.367C114.527+101.054+131.516+103.319+131.516+103.319L213.061+69.9087C269.689+58.0167+346.704+102.753+346.704+102.753C347.836+58.583+273.877+45.4322+273.877+45.4322C273.877+45.4322+315.143+15.0052+358.747+26.8972C328.918+8.94907+287.5-8.33038+218.506+12.5615C132.943+38.4702+22.7081+97.2414+20.8271+116.992Z" fill="#000000" stroke-linecap="butt" opacity="1" stroke-linejoin="miter"/>
</g>
</svg>
