<?xml version="1.0" encoding="UTF-8" standalone="no"?> <!-- Created with Vectornator for iOS (http://vectornator.io/) --><!DOCTYPE svg PUBLIC "-//W3C//DTD SVG 1.1//EN" "http://www.w3.org/Graphics/SVG/1.1/DTD/svg11.dtd">
<svg style="fill-rule:evenodd;clip-rule:evenodd;stroke-linecap:round;stroke-linejoin:round;" xmlns:vectornator="http://vectornator.io" xmlns:xlink="http://www.w3.org/1999/xlink" xmlns="http://www.w3.org/2000/svg" xml:space="preserve" version="1.1" viewBox="0 0 1400 812">
<metadata>
<vectornator:setting key="DynamicGuides" value="1"/>
<vectornator:setting key="CMYKEnabledKey" value="0"/>
<vectornator:setting key="Units" value="Pixels"/>
<vectornator:setting key="GridSpacing" value="36.00450134277344"/>
<vectornator:setting key="SnapToGuides" value="1"/>
<vectornator:setting key="RulersVisible" value="1"/>
</metadata>
<defs/>
<g id="Untitled" vectornator:layerName="Untitled">
<path stroke="#000000" stroke-width="7" d="M858.271+14.9918L1396.29+58.029C1396.29+58.029+1338.62+180.013+1144.26+185.341L820.438+137.529L805.445+4L858.271+14.9918Z" fill="#a4a4a4" stroke-linecap="round" opacity="1" stroke-linejoin="round"/>
<path stroke="#000000" stroke-width="7" d="M1145.55+184.457L824.926+134.577L818.925+102.713C818.925+102.713+870.001+73.7224+928.705+110.579C987.409+147.435+976.586+94.9239+1014.55+94.9239C1037.37+94.9239+1028.79+118.996+1068.78+124.16C1108.77+129.323+1118.74+95.076+1163.28+133.488C1207.82+171.901+1199.97+98.8093+1243.75+96.5739C1276.06+94.9239+1272.4+128.761+1300.61+119.857C1328.82+110.953+1391.21+81.2967+1356.55+108.903C1248.12+195.246+1145.55+184.457+1145.55+184.457Z" fill="#535353" stroke-linecap="round" opacity="1" stroke-linejoin="round"/>
<path stroke="#000000" stroke-width="60" d="M818.925+447.887L983.489+561.084" fill="none" stroke-linecap="round" opacity="1" stroke-linejoin="round"/>
<path stroke="#000000" stroke-width="40" d="M805.445+257.852L1003.9+337.979" fill="none" stroke-linecap="round" opacity="1" stroke-linejoin="round"/>
<g opacity="1">
<path stroke="#000000" stroke-width="7" d="M499.129+69.5189L489.064+9.33625L700.383+11.1852L732.897+445.315L712.042+452.3L771.838+800.285L683.717+805.547L660.051+509.117L657.767+805.514L469.154+788.305C469.154+788.305+495.824+711.9+491.353+663.849C486.882+615.799+469.154+402.651+469.154+402.651L499.129+69.5189Z" fill="#ff6c00" stroke-linecap="round" opacity="1" stroke-linejoin="round"/>
<path stroke="#000000" stroke-width="7" d="M610.351+94.075L454.154+65.0302L432.825+391.514L590.425+431.486L575.071+155.548" fill="#ff6c00" stroke-linecap="round" opacity="1" stroke-linejoin="round"/>
</g>
<path stroke="#000000" stroke-width="7" d="M455.467+399.475L462.432+481.58L575.568+501.364L562.401+426.496L455.467+399.475Z" fill="#ffecd6" stroke-linecap="round" opacity="1" stroke-linejoin="round"/>
<path stroke="#000000" stroke-width="7" d="M19.3535+467.818C19.3535+467.818-67.7445+5.10533+172.955+4C172.955+4+432.139+4+376.071+464.482C376.071+464.482+320.247+484.617+274.73+488.132C229.214+491.648+232.743+477.553+194.006+478.544C155.27+479.535+158.348+499.048+114.685+496.367C71.0214+493.685+19.3535+467.818+19.3535+467.818Z" fill="#ffffcf" stroke-linecap="round" opacity="1" stroke-linejoin="round"/>
<path stroke="#000000" stroke-width="7" d="M164.536+164.337L202.625+164.337C224.957+164.337+243.06+182.441+243.06+204.773L243.06+251.241C243.06+273.572+224.957+291.676+202.625+291.676L164.536+291.676C142.204+291.676+124.101+273.572+124.101+251.241L124.101+204.773C124.101+182.441+142.204+164.337+164.536+164.337Z" fill="#000000" stroke-linecap="round" opacity="1" stroke-linejoin="round"/>
<path stroke="#000000" stroke-width="7" d="M327.205+164.337L357.278+164.337L380.354+291.676L327.205+291.676C304.873+291.676+286.77+273.572+286.77+251.241L286.77+204.773C286.77+182.441+304.873+164.337+327.205+164.337Z" fill="#000000" stroke-linecap="round" opacity="1" stroke-linejoin="round"/>
<path stroke="#000000" stroke-width="20" d="M194.006+410.348L194.006+447.427" fill="#ffffff" stroke-linecap="round" opacity="1" stroke-linejoin="round"/>
<path stroke="#000000" stroke-width="20" d="M267.006+429.348L267.006+466.427" fill="#ffffff" stroke-linecap="round" opacity="1" stroke-linejoin="round"/>
<path stroke="#000000" stroke-width="20" d="M336.006+410.348L336.006+447.427" fill="#ffffff" stroke-linecap="round" opacity="1" stroke-linejoin="round"/>
<path stroke="#000000" stroke-width="20" d="M291.006+386.427L291.006+410.442" fill="#ffffff" stroke-linecap="round" opacity="1" stroke-linejoin="round"/>
<path stroke="#000000" stroke-width="20" d="M227.006+357.348L227.006+375.887" fill="#ffffff" stroke-linecap="round" opacity="1" stroke-linejoin="round"/>
<path stroke="#000000" stroke-width="20" d="M348.006+356.348L348.006+374.887" fill="#ffffff" stroke-linecap="round" opacity="1" stroke-linejoin="round"/>
<path stroke="#000000" stroke-width="20" d="M295.006+327.348L295.006+337.979" fill="#ffffff" stroke-linecap="round" opacity="1" stroke-linejoin="round"/>
<path stroke="#000000" stroke-width="7" d="M110.225+18.6139C84.9049+57.5286+75.0148+163.772+71.6256+266.299C68.8341+350.745+66.5694+431.556+97.4869+479.825" fill="#ffffcf" stroke-linecap="round" opacity="1" stroke-linejoin="round"/>
</g>
</svg>
